<svg xmlns="http://www.w3.org/2000/svg" xmlns:xlink="http://www.w3.org/1999/xlink" viewBox="0 0 640.71 639.33"><defs><style>.cls-1{fill:url(#linear-gradient);}</style><linearGradient id="linear-gradient" x1="27.77" y1="612.25" x2="612.94" y2="27.08" gradientUnits="userSpaceOnUse"><stop offset="0" stop-color="#fa8bff"/><stop offset="1" stop-color="#2af598"/></linearGradient></defs><title>Asset 1</title><g id="Layer_2" data-name="Layer 2"><g id="Layer_1-2" data-name="Layer 1"><path class="cls-1" d="M640.6,89.3c0-.08,0-.15,0-.23q-.1-2.17-.31-4.31V84.6q-.21-2.21-.53-4.4v0A93.08,93.08,0,0,0,636.86,67v0q-.63-2.12-1.35-4.19l-.08-.23q-.7-2-1.48-3.92l-.2-.48q-.75-1.82-1.56-3.6l-.34-.72q-.78-1.66-1.63-3.29l-.48-.92q-.82-1.54-1.7-3l-.6-1q-.88-1.47-1.82-2.91l-.65-1q-1-1.46-2-2.89l-.62-.85q-1.12-1.52-2.31-3l-.5-.62q-1.33-1.62-2.72-3.17l-.28-.32q-3.14-3.47-6.62-6.62l-.32-.28q-1.55-1.39-3.17-2.72l-.62-.5q-1.47-1.18-3-2.31l-.86-.62q-1.42-1-2.89-2l-1-.65q-1.44-.93-2.91-1.82l-1-.6q-1.5-.88-3-1.7l-.92-.48q-1.63-.84-3.29-1.63l-.73-.34q-1.78-.82-3.6-1.56l-.48-.2Q580.16,6,578.18,5.3l-.23-.08q-2.07-.72-4.19-1.35h0A93.07,93.07,0,0,0,560.53,1h0q-2.18-.31-4.4-.53h-.16q-2.14-.2-4.31-.31h-.23C550,0,548.53,0,547.08,0h0c-1.45,0-2.89,0-4.33.1h-.23q-2.17.1-4.31.31H538q-2.21.21-4.4.53h0a93.08,93.08,0,0,0-13.19,2.89h0q-2.12.63-4.19,1.35L516,5.3q-2,.7-3.91,1.48l-.48.2q-1.82.74-3.59,1.56l-.73.34q-1.66.78-3.28,1.62l-.92.49q-1.54.82-3,1.7l-1,.6q-1.47.88-2.9,1.81l-1,.65q-1.46,1-2.88,2l-.86.63q-1.51,1.12-3,2.31l-.63.5q-1.61,1.32-3.17,2.72l-.32.29q-1.74,1.57-3.39,3.23L320.35,187.94,159.84,27.43q-1.66-1.66-3.39-3.23l-.32-.29q-1.55-1.39-3.17-2.72l-.63-.5q-1.47-1.18-3-2.31l-.86-.63q-1.42-1-2.88-2l-1-.65q-1.43-.93-2.9-1.81l-1-.6q-1.5-.88-3-1.7l-.92-.49q-1.62-.84-3.28-1.62l-.73-.34q-1.78-.82-3.59-1.56l-.48-.2Q126.71,6,124.73,5.3l-.23-.08q-2.07-.72-4.19-1.35h0A93.08,93.08,0,0,0,107.08,1h0q-2.18-.31-4.4-.53h-.16q-2.14-.2-4.31-.31H98C96.52,0,95.08,0,93.63,0h0c-1.45,0-2.89,0-4.33.1h-.23q-2.17.1-4.31.31H84.6Q82.38.65,80.2,1h0A93.08,93.08,0,0,0,67,3.85h0q-2.12.63-4.19,1.35l-.23.08q-2,.7-3.92,1.48l-.48.2q-1.82.75-3.6,1.56l-.73.34q-1.66.78-3.29,1.63l-.92.48q-1.54.82-3,1.7l-1,.6q-1.47.88-2.91,1.82l-1,.65q-1.46,1-2.89,2l-.85.62q-1.52,1.13-3,2.31l-.62.5q-1.62,1.33-3.17,2.72l-.32.28q-3.47,3.14-6.62,6.62l-.28.32q-1.39,1.55-2.72,3.17l-.5.63q-1.18,1.47-2.31,3l-.62.86q-1,1.43-2,2.89l-.65,1q-.93,1.44-1.82,2.91l-.6,1q-.88,1.5-1.7,3l-.48.92q-.84,1.63-1.63,3.29l-.34.72Q7.71,56.31,7,58.13l-.2.48Q6,60.55,5.3,62.53l-.08.23Q4.49,64.83,3.86,67v0A93.07,93.07,0,0,0,1,80.18v0Q.65,82.38.44,84.6v.16Q.22,86.9.11,89.07c0,.08,0,.15,0,.23C0,90.74,0,92.18,0,93.63V545.7a93.63,93.63,0,0,0,93.63,93.63h0a93.63,93.63,0,0,0,93.63-93.63v-226l66.66,66.66a94.21,94.21,0,0,0,132.88,0l66.66-66.66v226a93.63,93.63,0,0,0,93.63,93.63h0a93.63,93.63,0,0,0,93.63-93.63V93.63C640.71,92.18,640.67,90.74,640.6,89.3Z"/></g></g></svg>